<?xml version="1.0" encoding="utf-8"?>
<svg version="1.1" xmlns:xlink="http://www.w3.org/1999/xlink" width="12px" height="12px" viewBox="302 82.5  12 12" xmlns="http://www.w3.org/2000/svg">
  <path d="M 308 82.5  C 311.36 82.5  314 85.14  314 88.5  C 314 91.86  311.36 94.5  308 94.5  C 304.64 94.5  302 91.86  302 88.5  C 302 85.14  304.64 82.5  308 82.5  Z " fill-rule="nonzero" fill="#ffffff" stroke="none" />
  <path d="M 308 83  C 311.08 83  313.5 85.42  313.5 88.5  C 313.5 91.58  311.08 94  308 94  C 304.92 94  302.5 91.58  302.5 88.5  C 302.5 85.42  304.92 83  308 83  Z " stroke-width="1" stroke="#797979" fill="none" />
  <path d="M 308 91.5  C 306.32 91.5  305 90.18  305 88.5  C 305 86.82  306.32 85.5  308 85.5  C 309.68 85.5  311 86.82  311 88.5  C 311 90.18  309.68 91.5  308 91.5  " fill-rule="nonzero" fill="#797979" stroke="none" />
</svg>