<?xml version="1.0" encoding="utf-8"?>
<svg version="1.1" xmlns:xlink="http://www.w3.org/1999/xlink" width="12px" height="12px" viewBox="383 82.5  12 12" xmlns="http://www.w3.org/2000/svg">
  <path d="M 389 82.5  C 392.36 82.5  395 85.14  395 88.5  C 395 91.86  392.36 94.5  389 94.5  C 385.64 94.5  383 91.86  383 88.5  C 383 85.14  385.64 82.5  389 82.5  Z " fill-rule="nonzero" fill="#ffffff" stroke="none" />
  <path d="M 389 83  C 392.08 83  394.5 85.42  394.5 88.5  C 394.5 91.58  392.08 94  389 94  C 385.92 94  383.5 91.58  383.5 88.5  C 383.5 85.42  385.92 83  389 83  Z " stroke-width="1" stroke="#797979" fill="none" />
  <path d="M 389 91.5  C 387.32 91.5  386 90.18  386 88.5  C 386 86.82  387.32 85.5  389 85.5  C 390.68 85.5  392 86.82  392 88.5  C 392 90.18  390.68 91.5  389 91.5  " fill-rule="nonzero" fill="#797979" stroke="none" />
</svg>