<?xml version="1.0" encoding="utf-8"?>
<svg version="1.1" xmlns:xlink="http://www.w3.org/1999/xlink" width="12px" height="12px" viewBox="383 140.5  12 12" xmlns="http://www.w3.org/2000/svg">
  <path d="M 389 140.5  C 392.36 140.5  395 143.14  395 146.5  C 395 149.86  392.36 152.5  389 152.5  C 385.64 152.5  383 149.86  383 146.5  C 383 143.14  385.64 140.5  389 140.5  Z " fill-rule="nonzero" fill="#ffffff" stroke="none" />
  <path d="M 389 141  C 392.08 141  394.5 143.42  394.5 146.5  C 394.5 149.58  392.08 152  389 152  C 385.92 152  383.5 149.58  383.5 146.5  C 383.5 143.42  385.92 141  389 141  Z " stroke-width="1" stroke="#797979" fill="none" />
  <path d="M 389 149.5  C 387.32 149.5  386 148.18  386 146.5  C 386 144.82  387.32 143.5  389 143.5  C 390.68 143.5  392 144.82  392 146.5  C 392 148.18  390.68 149.5  389 149.5  " fill-rule="nonzero" fill="#797979" stroke="none" />
</svg>