<?xml version="1.0" encoding="utf-8"?>
<svg version="1.1" xmlns:xlink="http://www.w3.org/1999/xlink" width="86px" height="51px" xmlns="http://www.w3.org/2000/svg">
  <g transform="matrix(1 0 0 1 -707 -368 )">
    <path d="M 707 368  L 793 368  L 793 419  L 707 419  L 707 368  " fill-rule="nonzero" fill="#cccccc" stroke="none" />
    <path d="M 711 372  L 789 372  L 789 415  L 711 415  L 711 372  " fill-rule="nonzero" fill="#ffffff" stroke="none" />
    <path d="M 755.545 383.3  C 753.403 383.3  751.72 381.617  751.72 379.475  C 751.72 377.333  753.403 375.65  755.545 375.65  C 757.687 375.65  759.37 377.333  759.37 379.475  C 759.37 381.617  757.687 383.3  755.545 383.3  " fill-rule="nonzero" fill="#cccccc" stroke="none" />
    <path d="M 713 414  L 713 392  L 731.75 382  L 758 399.767441860465  L 773 388  L 788 399.767441860465  L 788 414  L 713 414  " fill-rule="nonzero" fill="#169bd5" stroke="none" />
  </g>
</svg>