<?xml version="1.0" encoding="utf-8"?>
<svg version="1.1" xmlns:xlink="http://www.w3.org/1999/xlink" width="24px" height="18px" xmlns="http://www.w3.org/2000/svg">
  <g transform="matrix(1 0 0 1 -358 -179 )">
    <path d="M 4.5 9  L 7.5 9  L 7.5 15  L 4.5 15  L 4.5 9  Z M 9 3  L 12 3  L 12 15  L 9 15  L 9 3  Z M 1.5 16.5  L 24 16.5  L 24 18  L 0 18  L 0 0  L 1.5 0  L 1.5 16.5  Z M 13.5 6  L 16.5 6  L 16.5 15  L 13.5 15  L 13.5 6  Z M 18 1.5  L 21 1.5  L 21 15  L 18 15  L 18 1.5  Z " fill-rule="nonzero" fill="#666666" stroke="none" transform="matrix(1 0 0 1 358 179 )" />
  </g>
</svg>