<?xml version="1.0" encoding="utf-8"?>
<svg version="1.1" xmlns:xlink="http://www.w3.org/1999/xlink" width="12px" height="12px" viewBox="48 77.5  12 12" xmlns="http://www.w3.org/2000/svg">
  <path d="M 54 77.5  C 57.36 77.5  60 80.14  60 83.5  C 60 86.86  57.36 89.5  54 89.5  C 50.64 89.5  48 86.86  48 83.5  C 48 80.14  50.64 77.5  54 77.5  Z " fill-rule="nonzero" fill="#ffffff" stroke="none" />
  <path d="M 54 78  C 57.08 78  59.5 80.42  59.5 83.5  C 59.5 86.58  57.08 89  54 89  C 50.92 89  48.5 86.58  48.5 83.5  C 48.5 80.42  50.92 78  54 78  Z " stroke-width="1" stroke="#797979" fill="none" />
  <path d="M 54 86.5  C 52.32 86.5  51 85.18  51 83.5  C 51 81.82  52.32 80.5  54 80.5  C 55.68 80.5  57 81.82  57 83.5  C 57 85.18  55.68 86.5  54 86.5  " fill-rule="nonzero" fill="#797979" stroke="none" />
</svg>