<?xml version="1.0" encoding="utf-8"?>
<svg version="1.1" xmlns:xlink="http://www.w3.org/1999/xlink" width="12px" height="12px" viewBox="258 415.5  12 12" xmlns="http://www.w3.org/2000/svg">
  <path d="M 264 415.5  C 267.36 415.5  270 418.14  270 421.5  C 270 424.86  267.36 427.5  264 427.5  C 260.64 427.5  258 424.86  258 421.5  C 258 418.14  260.64 415.5  264 415.5  Z " fill-rule="nonzero" fill="#ffffff" stroke="none" />
  <path d="M 264 416  C 267.08 416  269.5 418.42  269.5 421.5  C 269.5 424.58  267.08 427  264 427  C 260.92 427  258.5 424.58  258.5 421.5  C 258.5 418.42  260.92 416  264 416  Z " stroke-width="1" stroke="#797979" fill="none" />
  <path d="M 264 424.5  C 262.32 424.5  261 423.18  261 421.5  C 261 419.82  262.32 418.5  264 418.5  C 265.68 418.5  267 419.82  267 421.5  C 267 423.18  265.68 424.5  264 424.5  " fill-rule="nonzero" fill="#797979" stroke="none" />
</svg>