<?xml version="1.0" encoding="utf-8"?>
<svg version="1.1" xmlns:xlink="http://www.w3.org/1999/xlink" width="12px" height="12px" viewBox="394 415.5  12 12" xmlns="http://www.w3.org/2000/svg">
  <path d="M 400 415.5  C 403.36 415.5  406 418.14  406 421.5  C 406 424.86  403.36 427.5  400 427.5  C 396.64 427.5  394 424.86  394 421.5  C 394 418.14  396.64 415.5  400 415.5  Z " fill-rule="nonzero" fill="#ffffff" stroke="none" />
  <path d="M 400 416  C 403.08 416  405.5 418.42  405.5 421.5  C 405.5 424.58  403.08 427  400 427  C 396.92 427  394.5 424.58  394.5 421.5  C 394.5 418.42  396.92 416  400 416  Z " stroke-width="1" stroke="#797979" fill="none" />
  <path d="M 400 424.5  C 398.32 424.5  397 423.18  397 421.5  C 397 419.82  398.32 418.5  400 418.5  C 401.68 418.5  403 419.82  403 421.5  C 403 423.18  401.68 424.5  400 424.5  " fill-rule="nonzero" fill="#797979" stroke="none" />
</svg>