<?xml version="1.0" encoding="utf-8"?>
<svg version="1.1" xmlns:xlink="http://www.w3.org/1999/xlink" width="127px" height="105px" xmlns="http://www.w3.org/2000/svg">
  <g transform="matrix(1 0 0 1 -200 -207 )">
    <path d="M 200 207  L 327 207  L 327 312  L 200 312  L 200 207  " fill-rule="nonzero" fill="#cccccc" stroke="none" />
    <path d="M 207 214  L 320 214  L 320 305  L 207 305  L 207 214  " fill-rule="nonzero" fill="#ffffff" stroke="none" />
    <path d="M 273.915 238.5  C 269.505 238.5  266.04 235.035  266.04 230.625  C 266.04 226.215  269.505 222.75  273.915 222.75  C 278.325 222.75  281.79 226.215  281.79 230.625  C 281.79 235.035  278.325 238.5  273.915 238.5  " fill-rule="nonzero" fill="#cccccc" stroke="none" />
    <path d="M 210 303  L 210 255.7  L 237 234.2  L 274.8 260.338582677165  L 296.4 247.1  L 318 260.338582677165  L 318 303  L 210 303  " fill-rule="nonzero" fill="#169bd5" stroke="none" />
  </g>
</svg>