<?xml version="1.0" encoding="utf-8"?>
<svg version="1.1" xmlns:xlink="http://www.w3.org/1999/xlink" width="12px" height="12px" viewBox="58 77.5  12 12" xmlns="http://www.w3.org/2000/svg">
  <path d="M 64 77.5  C 67.36 77.5  70 80.14  70 83.5  C 70 86.86  67.36 89.5  64 89.5  C 60.64 89.5  58 86.86  58 83.5  C 58 80.14  60.64 77.5  64 77.5  Z " fill-rule="nonzero" fill="#ffffff" stroke="none" />
  <path d="M 64 78  C 67.08 78  69.5 80.42  69.5 83.5  C 69.5 86.58  67.08 89  64 89  C 60.92 89  58.5 86.58  58.5 83.5  C 58.5 80.42  60.92 78  64 78  Z " stroke-width="1" stroke="#797979" fill="none" />
  <path d="M 64 86.5  C 62.32 86.5  61 85.18  61 83.5  C 61 81.82  62.32 80.5  64 80.5  C 65.68 80.5  67 81.82  67 83.5  C 67 85.18  65.68 86.5  64 86.5  " fill-rule="nonzero" fill="#797979" stroke="none" />
</svg>