<?xml version="1.0" encoding="utf-8"?>
<svg version="1.1" xmlns:xlink="http://www.w3.org/1999/xlink" width="12px" height="12px" viewBox="168 77.5  12 12" xmlns="http://www.w3.org/2000/svg">
  <path d="M 174 77.5  C 177.36 77.5  180 80.14  180 83.5  C 180 86.86  177.36 89.5  174 89.5  C 170.64 89.5  168 86.86  168 83.5  C 168 80.14  170.64 77.5  174 77.5  Z " fill-rule="nonzero" fill="#ffffff" stroke="none" />
  <path d="M 174 78  C 177.08 78  179.5 80.42  179.5 83.5  C 179.5 86.58  177.08 89  174 89  C 170.92 89  168.5 86.58  168.5 83.5  C 168.5 80.42  170.92 78  174 78  Z " stroke-width="1" stroke="#797979" fill="none" />
  <path d="M 174 86.5  C 172.32 86.5  171 85.18  171 83.5  C 171 81.82  172.32 80.5  174 80.5  C 175.68 80.5  177 81.82  177 83.5  C 177 85.18  175.68 86.5  174 86.5  " fill-rule="nonzero" fill="#797979" stroke="none" />
</svg>