<?xml version="1.0" encoding="utf-8"?>
<svg version="1.1" xmlns:xlink="http://www.w3.org/1999/xlink" width="12px" height="12px" viewBox="262 125  12 12" xmlns="http://www.w3.org/2000/svg">
  <path d="M 268 125  C 271.36 125  274 127.64  274 131  C 274 134.36  271.36 137  268 137  C 264.64 137  262 134.36  262 131  C 262 127.64  264.64 125  268 125  Z " fill-rule="nonzero" fill="#ffffff" stroke="none" />
  <path d="M 268 125.5  C 271.08 125.5  273.5 127.92  273.5 131  C 273.5 134.08  271.08 136.5  268 136.5  C 264.92 136.5  262.5 134.08  262.5 131  C 262.5 127.92  264.92 125.5  268 125.5  Z " stroke-width="1" stroke="#797979" fill="none" />
  <path d="M 268 134  C 266.32 134  265 132.68  265 131  C 265 129.32  266.32 128  268 128  C 269.68 128  271 129.32  271 131  C 271 132.68  269.68 134  268 134  " fill-rule="nonzero" fill="#797979" stroke="none" />
</svg>