<?xml version="1.0" encoding="utf-8"?>
<svg version="1.1" xmlns:xlink="http://www.w3.org/1999/xlink" width="15px" height="16px" xmlns="http://www.w3.org/2000/svg">
  <g transform="matrix(1 0 0 1 -653 -164 )">
    <path d="M 1.15384615384619 12.2857142857143  L 1.15384615384619 14.8571428571428  L 3.75 14.8571428571428  L 3.75 12.2857142857143  L 1.15384615384619 12.2857142857143  Z M 4.32692307692309 12.2857142857143  L 4.32692307692309 14.8571428571428  L 7.21153846153845 14.8571428571428  L 7.21153846153845 12.2857142857143  L 4.32692307692309 12.2857142857143  Z M 1.15384615384619 8.85714285714283  L 1.15384615384619 11.7142857142857  L 3.75 11.7142857142857  L 3.75 8.85714285714283  L 1.15384615384619 8.85714285714283  Z M 4.32692307692309 8.85714285714283  L 4.32692307692309 11.7142857142857  L 7.21153846153845 11.7142857142857  L 7.21153846153845 8.85714285714283  L 4.32692307692309 8.85714285714283  Z M 1.15384615384619 5.71428571428572  L 1.15384615384619 8.28571428571428  L 3.75 8.28571428571428  L 3.75 5.71428571428572  L 1.15384615384619 5.71428571428572  Z M 7.78846153846155 12.2857142857143  L 7.78846153846155 14.8571428571428  L 10.6730769230769 14.8571428571428  L 10.6730769230769 12.2857142857143  L 7.78846153846155 12.2857142857143  Z M 4.32692307692309 5.71428571428572  L 4.32692307692309 8.28571428571428  L 7.21153846153845 8.28571428571428  L 7.21153846153845 5.71428571428572  L 4.32692307692309 5.71428571428572  Z M 11.25 12.2857142857143  L 11.25 14.8571428571428  L 13.8461538461538 14.8571428571428  L 13.8461538461538 12.2857142857143  L 11.25 12.2857142857143  Z M 7.78846153846155 8.85714285714283  L 7.78846153846155 11.7142857142857  L 10.6730769230769 11.7142857142857  L 10.6730769230769 8.85714285714283  L 7.78846153846155 8.85714285714283  Z M 4.52974759615381 4.20089285714283  C 4.58683894230774 4.14434523809524  4.61538461538464 4.07738095238096  4.61538461538464 4  L 4.61538461538464 1.42857142857144  C 4.61538461538464 1.35119047619048  4.58683894230774 1.2842261904762  4.52974759615381 1.22767857142856  C 4.47265625 1.17113095238096  4.40504807692309 1.14285714285717  4.32692307692309 1.14285714285717  L 3.75 1.14285714285717  C 3.671875 1.14285714285717  3.60426682692309 1.17113095238096  3.54717548076928 1.22767857142856  C 3.49008413461536 1.2842261904762  3.46153846153845 1.35119047619048  3.46153846153845 1.42857142857144  L 3.46153846153845 4  C 3.46153846153845 4.07738095238096  3.49008413461536 4.14434523809524  3.54717548076928 4.20089285714283  C 3.60426682692309 4.25744047619048  3.671875 4.28571428571428  3.75 4.28571428571428  L 4.32692307692309 4.28571428571428  C 4.40504807692309 4.28571428571428  4.47265625 4.25744047619048  4.52974759615381 4.20089285714283  Z M 11.25 8.85714285714283  L 11.25 11.7142857142857  L 13.8461538461538 11.7142857142857  L 13.8461538461538 8.85714285714283  L 11.25 8.85714285714283  Z M 7.78846153846155 5.71428571428572  L 7.78846153846155 8.28571428571428  L 10.6730769230769 8.28571428571428  L 10.6730769230769 5.71428571428572  L 7.78846153846155 5.71428571428572  Z M 11.25 5.71428571428572  L 11.25 8.28571428571428  L 13.8461538461538 8.28571428571428  L 13.8461538461538 5.71428571428572  L 11.25 5.71428571428572  Z M 11.4528245192307 4.20089285714283  C 11.5099158653846 4.14434523809524  11.5384615384615 4.07738095238096  11.5384615384615 4  L 11.5384615384615 1.42857142857144  C 11.5384615384615 1.35119047619048  11.5099158653846 1.2842261904762  11.4528245192307 1.22767857142856  C 11.3957331730769 1.17113095238096  11.328125 1.14285714285717  11.25 1.14285714285717  L 10.6730769230769 1.14285714285717  C 10.5949519230769 1.14285714285717  10.52734375 1.17113095238096  10.4702524038462 1.22767857142856  C 10.4131610576923 1.2842261904762  10.3846153846154 1.35119047619048  10.3846153846154 1.42857142857144  L 10.3846153846154 4  C 10.3846153846154 4.07738095238096  10.4131610576923 4.14434523809524  10.4702524038462 4.20089285714283  C 10.52734375 4.25744047619048  10.5949519230769 4.28571428571428  10.6730769230769 4.28571428571428  L 11.25 4.28571428571428  C 11.328125 4.28571428571428  11.3957331730769 4.25744047619048  11.4528245192307 4.20089285714283  Z M 14.6574519230769 2.625  C 14.8858173076923 2.85119047619048  15 3.11904761904759  15 3.42857142857144  L 15 14.8571428571428  C 15 15.1666666666667  14.8858173076923 15.4345238095238  14.6574519230769 15.6607142857143  C 14.4290865384615 15.8869047619048  14.1586538461538 16  13.8461538461538 16  L 1.15384615384619 16  C 0.841346153846189 16  0.570913461538453 15.8869047619048  0.342548076923094 15.6607142857143  C 0.114182692307736 15.4345238095238  0 15.1666666666667  0 14.8571428571428  L 0 3.42857142857144  C 0 3.11904761904759  0.114182692307736 2.85119047619048  0.342548076923094 2.625  C 0.570913461538453 2.39880952380952  0.841346153846189 2.28571428571428  1.15384615384619 2.28571428571428  L 2.30769230769226 2.28571428571428  L 2.30769230769226 1.42857142857144  C 2.30769230769226 1.03571428571428  2.44891826923072 0.699404761904759  2.73137019230774 0.419642857142833  C 3.01382211538464 0.139880952380963  3.35336538461536 0  3.75 0  L 4.32692307692309 0  C 4.72355769230774 0  5.06310096153845 0.139880952380963  5.34555288461536 0.419642857142833  C 5.62800480769226 0.699404761904759  5.76923076923072 1.03571428571428  5.76923076923072 1.42857142857144  L 5.76923076923072 2.28571428571428  L 9.23076923076928 2.28571428571428  L 9.23076923076928 1.42857142857144  C 9.23076923076928 1.03571428571428  9.37199519230774 0.699404761904759  9.65444711538464 0.419642857142833  C 9.93689903846155 0.139880952380963  10.2764423076923 0  10.6730769230769 0  L 11.25 0  C 11.6466346153846 0  11.9861778846154 0.139880952380963  12.2686298076923 0.419642857142833  C 12.5510817307693 0.699404761904759  12.6923076923077 1.03571428571428  12.6923076923077 1.42857142857144  L 12.6923076923077 2.28571428571428  L 13.8461538461538 2.28571428571428  C 14.1586538461538 2.28571428571428  14.4290865384615 2.39880952380952  14.6574519230769 2.625  Z " fill-rule="nonzero" fill="#000000" stroke="none" transform="matrix(1 0 0 1 653 164 )" />
  </g>
</svg>