<?xml version="1.0" encoding="utf-8"?>
<svg version="1.1" xmlns:xlink="http://www.w3.org/1999/xlink" width="30px" height="30px" xmlns="http://www.w3.org/2000/svg">
  <g transform="matrix(1 0 0 1 109 -75 )">
    <path d="M -94 75  C -85.6 75  -79 81.6  -79 90  C -79 98.4  -85.6 105  -94 105  C -102.4 105  -109 98.4  -109 90  C -109 81.6  -102.4 75  -94 75  Z " fill-rule="nonzero" fill="#ffffff" stroke="none" />
    <path d="M -94 75.5  C -85.88 75.5  -79.5 81.88  -79.5 90  C -79.5 98.12  -85.88 104.5  -94 104.5  C -102.12 104.5  -108.5 98.12  -108.5 90  C -108.5 81.88  -102.12 75.5  -94 75.5  Z " stroke-width="1" stroke="#797979" fill="none" />
  </g>
</svg>