<?xml version="1.0" encoding="utf-8"?>
<svg version="1.1" xmlns:xlink="http://www.w3.org/1999/xlink" width="12px" height="12px" viewBox="333 307  12 12" xmlns="http://www.w3.org/2000/svg">
  <path d="M 339 307  C 342.36 307  345 309.64  345 313  C 345 316.36  342.36 319  339 319  C 335.64 319  333 316.36  333 313  C 333 309.64  335.64 307  339 307  Z " fill-rule="nonzero" fill="#ffffff" stroke="none" />
  <path d="M 339 307.5  C 342.08 307.5  344.5 309.92  344.5 313  C 344.5 316.08  342.08 318.5  339 318.5  C 335.92 318.5  333.5 316.08  333.5 313  C 333.5 309.92  335.92 307.5  339 307.5  Z " stroke-width="1" stroke="#797979" fill="none" />
  <path d="M 339 316  C 337.32 316  336 314.68  336 313  C 336 311.32  337.32 310  339 310  C 340.68 310  342 311.32  342 313  C 342 314.68  340.68 316  339 316  " fill-rule="nonzero" fill="#797979" stroke="none" />
</svg>