<?xml version="1.0" encoding="utf-8"?>
<svg version="1.1" xmlns:xlink="http://www.w3.org/1999/xlink" width="12px" height="12px" viewBox="396 307  12 12" xmlns="http://www.w3.org/2000/svg">
  <path d="M 402 307  C 405.36 307  408 309.64  408 313  C 408 316.36  405.36 319  402 319  C 398.64 319  396 316.36  396 313  C 396 309.64  398.64 307  402 307  Z " fill-rule="nonzero" fill="#ffffff" stroke="none" />
  <path d="M 402 307.5  C 405.08 307.5  407.5 309.92  407.5 313  C 407.5 316.08  405.08 318.5  402 318.5  C 398.92 318.5  396.5 316.08  396.5 313  C 396.5 309.92  398.92 307.5  402 307.5  Z " stroke-width="1" stroke="#797979" fill="none" />
  <path d="M 402 316  C 400.32 316  399 314.68  399 313  C 399 311.32  400.32 310  402 310  C 403.68 310  405 311.32  405 313  C 405 314.68  403.68 316  402 316  " fill-rule="nonzero" fill="#797979" stroke="none" />
</svg>