<?xml version="1.0" encoding="utf-8"?>
<svg version="1.1" xmlns:xlink="http://www.w3.org/1999/xlink" width="203px" height="136px" xmlns="http://www.w3.org/2000/svg">
  <g transform="matrix(1 0 0 1 -206 -869 )">
    <path d="M 206 869  L 409 869  L 409 1005  L 206 1005  L 206 869  " fill-rule="nonzero" fill="#cccccc" stroke="none" />
    <path d="M 216 879  L 399 879  L 399 995  L 216 995  L 216 879  " fill-rule="nonzero" fill="#ffffff" stroke="none" />
    <path d="M 321.76 909.8  C 316.048 909.8  311.56 905.312  311.56 899.6  C 311.56 893.888  316.048 889.4  321.76 889.4  C 327.472 889.4  331.96 893.888  331.96 899.6  C 331.96 905.312  327.472 909.8  321.76 909.8  " fill-rule="nonzero" fill="#cccccc" stroke="none" />
    <path d="M 220 992  L 220 932.05  L 264 904.8  L 325.6 948.185221674877  L 360.8 921.15  L 396 948.185221674877  L 396 992  L 220 992  " fill-rule="nonzero" fill="#169bd5" stroke="none" />
  </g>
</svg>